<svg width="34" height="34" viewBox="0 0 34 34" fill="none" xmlns="http://www.w3.org/2000/svg">
<circle cx="17" cy="17" r="17" fill="white"/>
<path d="M26.257 15.962C26.731 16.582 26.731 17.419 26.257 18.038C24.764 19.987 21.182 24 17 24C12.818 24 9.23601 19.987 7.74301 18.038C7.51239 17.7411 7.38721 17.3759 7.38721 17C7.38721 16.6241 7.51239 16.2589 7.74301 15.962C9.23601 14.013 12.818 10 17 10C21.182 10 24.764 14.013 26.257 15.962V15.962Z" stroke="black" stroke-width="1.5" stroke-linecap="round" stroke-linejoin="round"/>
<path d="M17 20C18.6569 20 20 18.6569 20 17C20 15.3431 18.6569 14 17 14C15.3431 14 14 15.3431 14 17C14 18.6569 15.3431 20 17 20Z" stroke="black" stroke-width="1.5" stroke-linecap="round" stroke-linejoin="round"/>
</svg>
