<svg xmlns="http://www.w3.org/2000/svg" width="80" height="80" fill="none"><path fill="#2F2E30" d="M80 40c0 22.091-17.909 40-40 40S0 62.091 0 40 17.909 0 40 0s40 17.909 40 40Zm-69.093 0c0 16.068 13.026 29.093 29.093 29.093 16.068 0 29.093-13.026 29.093-29.093S56.067 10.907 40 10.907 10.907 23.933 10.907 40Z" opacity=".3"/><circle cx="40" cy="40" r="29" fill="#000"/><path fill="#FAFAFA" stroke="#FAFAFA" d="M28.1 50.6h-.001c-.873-.652-1.674-1.68-2.256-2.841-.583-1.162-.926-2.414-.926-3.492v-12.4c0-2.36 1.755-4.905 3.974-5.732h.001l8.316-3.117c.754-.281 1.754-.43 2.775-.43 1.022 0 2.022.149 2.775.43l8.316 3.117h.002c2.22.827 3.974 3.372 3.974 5.732V44.25c0 1.087-.343 2.34-.926 3.498-.583 1.16-1.383 2.183-2.256 2.834l-7.167 5.35-.006.005c-1.283.99-2.971 1.496-4.695 1.496-1.723 0-3.415-.506-4.735-1.484l-7.166-5.35Zm9.642-26.169-8.317 3.117h-.001c-.828.312-1.569.975-2.1 1.743-.531.768-.89 1.699-.89 2.592v12.384c0 .894.31 1.922.767 2.834.457.912 1.092 1.771 1.8 2.3l7.166 5.35c1.062.794 2.461 1.174 3.835 1.174s2.776-.38 3.846-1.173l.001-.001 7.167-5.35V49.4c.715-.536 1.35-1.395 1.806-2.306.456-.91.761-1.934.761-2.827v-12.4c0-.887-.36-1.813-.89-2.58-.531-.768-1.27-1.433-2.095-1.753l-.006-.002-8.317-3.117-.009-.003c-.638-.226-1.466-.329-2.265-.327-.799.002-1.626.11-2.26.346Z"/><path fill="#FAFAFA" stroke="#FAFAFA" d="m37.413 41.054.354.353.353-.353 6.284-6.284a.757.757 0 0 1 1.06 0 .757.757 0 0 1 0 1.06l-7.167 7.166a.736.736 0 0 1-.53.22.736.736 0 0 1-.53-.22l-2.683-2.683a.757.757 0 0 1 0-1.06.757.757 0 0 1 1.06 0l1.8 1.8Z"/></svg>