<svg width="40" height="40" viewBox="0 0 40 40" fill="none" xmlns="http://www.w3.org/2000/svg">
<g clip-path="url(#clip0_261_4865)">
<path d="M33.3337 18.3334C32.9261 15.4004 31.5654 12.6828 29.4614 10.5992C27.3573 8.51557 24.6266 7.18155 21.6898 6.80261C18.753 6.42366 15.773 7.02082 13.209 8.5021C10.645 9.98337 8.63907 12.2666 7.50033 15M6.66699 8.33335V15H13.3337" stroke="black" stroke-width="2" stroke-linecap="round" stroke-linejoin="round"/>
<path d="M6.66699 21.6667C7.07459 24.5997 8.43521 27.3173 10.5393 29.4009C12.6433 31.4845 15.3741 32.8185 18.3109 33.1974C21.2477 33.5764 24.2276 32.9792 26.7917 31.4979C29.3557 30.0167 31.3616 27.7335 32.5003 25M33.3337 31.6667V25H26.667" stroke="black" stroke-width="2" stroke-linecap="round" stroke-linejoin="round"/>
</g>
<defs>
<clipPath id="clip0_261_4865">
<rect width="40" height="40" fill="white"/>
</clipPath>
</defs>
</svg>
