<svg width="20" height="19" viewBox="0 0 20 19" fill="none" xmlns="http://www.w3.org/2000/svg">
<path d="M13.8726 6.93621H17.8284C18.4517 6.93621 18.7176 7.72859 18.2205 8.10461L14.8905 10.6234C14.1688 11.1693 13.8661 12.1087 14.1334 12.9732L15.3864 17.0261C15.5735 17.6312 14.8729 18.1193 14.3701 17.7341L11.3075 15.3879C10.536 14.7969 9.46399 14.7969 8.69251 15.3879L5.61357 17.7466C5.11152 18.1312 4.41161 17.645 4.59677 17.0403L5.83243 13.0046C6.09532 12.146 5.79694 11.2145 5.08413 10.6684L1.73432 8.1022C1.24111 7.72436 1.50831 6.93621 2.12961 6.93621H6.12744C7.07024 6.93621 7.90305 6.32198 8.18152 5.42124L9.379 1.5479C9.5678 0.937211 10.4322 0.937216 10.621 1.5479L11.8185 5.42124C12.0969 6.32198 12.9298 6.93621 13.8726 6.93621Z" stroke="#FAFAFA" stroke-width="1.5"/>
</svg>
