<svg width="21" height="17" viewBox="0 0 21 17" fill="none" xmlns="http://www.w3.org/2000/svg">
<path d="M10.905 4.84651L10.905 4.84646C10.9194 4.06035 11.2418 3.3113 11.8028 2.76049C12.3639 2.20969 13.1188 1.90116 13.905 1.90129L10.905 4.84651ZM10.905 4.84651L10.877 6.42135M10.905 4.84651L10.877 6.42135M2.75811 3.80857L2.89001 3.91846C4.76679 5.48211 6.71781 6.41823 8.74946 6.6952C8.74947 6.6952 8.74949 6.6952 8.74951 6.6952L10.3104 6.90718L2.75811 3.80857ZM2.75811 3.80857L2.72759 3.97751M2.75811 3.80857L2.72759 3.97751M2.72759 3.97751C2.42576 5.64819 2.5683 7.07086 3.1479 8.30176C3.72718 9.53198 4.73827 10.5605 6.15577 11.4519L6.15579 11.452M2.72759 3.97751L6.15579 11.452M6.15579 11.452L7.90279 12.55L7.954 12.4685M6.15579 11.452L7.954 12.4685M7.954 12.4685L7.90279 12.55C7.97196 12.5934 8.02943 12.6532 8.07016 12.724C8.1109 12.7948 8.13366 12.8745 8.13645 12.9562C8.13925 13.0378 8.122 13.1189 8.0862 13.1924C8.05041 13.2658 7.99716 13.3294 7.93112 13.3775L7.93101 13.3775M7.954 12.4685L7.93101 13.3775M7.93101 13.3775L6.33901 14.5405L6.11542 14.7039M7.93101 13.3775L6.11542 14.7039M6.11542 14.7039L6.39178 14.7211M6.11542 14.7039L6.39178 14.7211M6.39178 14.7211C7.3449 14.7805 8.25288 14.7385 9.00946 14.5884L9.00958 14.5884M6.39178 14.7211L9.00958 14.5884M9.00958 14.5884C11.3886 14.1134 13.3745 12.9794 14.7652 11.2211M9.00958 14.5884L14.7652 11.2211M10.877 6.42135C10.877 6.42135 10.877 6.42135 10.877 6.42136M10.877 6.42135V6.42136M10.877 6.42136C10.8757 6.49182 10.8594 6.56121 10.8293 6.62495C10.7993 6.6887 10.7561 6.74537 10.7026 6.79125C10.649 6.83712 10.5864 6.87117 10.5188 6.89115C10.4513 6.91112 10.3803 6.91659 10.3105 6.9072L10.877 6.42136ZM14.7652 11.2211C16.1557 9.46296 16.945 7.08835 16.945 4.14229M14.7652 11.2211L16.945 4.14229M16.945 4.14229C16.945 3.99668 16.8715 3.78474 16.744 3.55722M16.945 4.14229L16.744 3.55722M16.744 3.55722C16.6142 3.32559 16.4215 3.06508 16.1673 2.82049M16.744 3.55722L16.1673 2.82049M16.1673 2.82049C15.6587 2.33088 14.8999 1.90129 13.905 1.90129L16.1673 2.82049ZM18.4978 1.53842C18.8818 1.48388 19.3285 1.34345 19.916 1.01105C19.6101 2.49526 19.4321 3.16764 18.7642 4.08336L18.745 4.10969V4.14229C18.745 7.94153 17.578 10.7567 15.8258 12.7397C14.0726 14.7238 11.7277 15.8813 9.36243 16.3532C7.74529 16.6759 5.7544 16.5728 3.99643 16.2106C3.11813 16.0296 2.30077 15.7846 1.61983 15.4974C1.03727 15.2517 0.560091 14.9775 0.229559 14.6904C0.660648 14.6482 1.4114 14.5535 2.24366 14.3598C3.24355 14.1272 4.37173 13.7494 5.20306 13.141L5.31918 13.056L5.19904 12.9768C5.15724 12.9492 5.11178 12.9196 5.06301 12.8879C4.30477 12.3938 2.74648 11.3786 1.73155 9.51655C0.667136 7.56374 0.192566 4.66295 1.91362 0.425918C3.57889 2.34347 5.2726 3.66001 6.99504 4.3668L6.99505 4.36681C7.57663 4.60536 7.94255 4.72373 8.23185 4.79141C8.45087 4.84265 8.62608 4.86463 8.81173 4.88794C8.87034 4.89529 8.92999 4.90278 8.99238 4.91135L9.28722 4.95189L9.10594 4.77077C9.13096 3.8414 9.42538 2.93895 9.95386 2.17331C10.4904 1.39606 11.2442 0.79434 12.1211 0.443497C12.9979 0.0926537 13.9588 0.00827681 14.8833 0.200931C15.8079 0.393585 16.6551 0.854708 17.3189 1.52657L17.3485 1.55658L17.3907 1.55628C17.4934 1.55556 17.5972 1.55908 17.7036 1.56269C17.9483 1.57098 18.2068 1.57974 18.4978 1.53842Z" fill="black" stroke="white" stroke-width="0.2"/>
</svg>
